<svg xmlns="http://www.w3.org/2000/svg" class="d-none">
  <!-- 부트스트랩 -->
  <symbol id="default" viewBox="0 0 16 16">
    <path d="M5.062 12h3.475c1.804 0 2.888-.908 2.888-2.396 0-1.102-.761-1.916-1.904-2.034v-.1c.832-.14 1.482-.93 1.482-1.816 0-1.3-.955-2.11-2.542-2.11H5.062zm1.313-4.875V4.658h1.78c.973 0 1.542.457 1.542 1.237 0 .802-.604 1.23-1.764 1.23zm0 3.762V8.162h1.822c1.236 0 1.887.463 1.887 1.348 0 .896-.627 1.377-1.811 1.377z"/>
    <path d="M0 4a4 4 0 0 1 4-4h8a4 4 0 0 1 4 4v8a4 4 0 0 1-4 4H4a4 4 0 0 1-4-4zm4-3a3 3 0 0 0-3 3v8a3 3 0 0 0 3 3h8a3 3 0 0 0 3-3V4a3 3 0 0 0-3-3z"/>
  </symbol>
  <!-- 컬러모드 아이콘 -->
  <symbol id="check2" viewBox="0 0 16 16">
    <path d="M13.854 3.646a.5.5 0 0 1 0 .708l-7 7a.5.5 0 0 1-.708 0l-3.5-3.5a.5.5 0 1 1 .708-.708L6.5 10.293l6.646-6.647a.5.5 0 0 1 .708 0z" />
  </symbol>
  <symbol id="circle-half" viewBox="0 0 16 16">
    <path d="M8 15A7 7 0 1 0 8 1v14zm0 1A8 8 0 1 1 8 0a8 8 0 0 1 0 16z" />
  </symbol>
  <symbol id="moon-stars-fill" viewBox="0 0 16 16">
    <path d="M6 .278a.768.768 0 0 1 .08.858 7.208 7.208 0 0 0-.878 3.46c0 4.021 3.278 7.277 7.318 7.277.527 0 1.04-.055 1.533-.16a.787.787 0 0 1 .81.316.733.733 0 0 1-.031.893A8.349 8.349 0 0 1 8.344 16C3.734 16 0 12.286 0 7.71 0 4.266 2.114 1.312 5.124.06A.752.752 0 0 1 6 .278z" />
    <path d="M10.794 3.148a.217.217 0 0 1 .412 0l.387 1.162c.173.518.579.924 1.097 1.097l1.162.387a.217.217 0 0 1 0 .412l-1.162.387a1.734 1.734 0 0 0-1.097 1.097l-.387 1.162a.217.217 0 0 1-.412 0l-.387-1.162A1.734 1.734 0 0 0 9.31 6.593l-1.162-.387a.217.217 0 0 1 0-.412l1.162-.387a1.734 1.734 0 0 0 1.097-1.097l.387-1.162zM13.863.099a.145.145 0 0 1 .274 0l.258.774c.115.346.386.617.732.732l.774.258a.145.145 0 0 1 0 .274l-.774.258a1.156 1.156 0 0 0-.732.732l-.258.774a.145.145 0 0 1-.274 0l-.258-.774a1.156 1.156 0 0 0-.732-.732l-.774-.258a.145.145 0 0 1 0-.274l.774-.258c.346-.115.617-.386.732-.732L13.863.1z" />
  </symbol>
  <symbol id="sun-fill" viewBox="0 0 16 16">
    <path d="M8 12a4 4 0 1 0 0-8 4 4 0 0 0 0 8zM8 0a.5.5 0 0 1 .5.5v2a.5.5 0 0 1-1 0v-2A.5.5 0 0 1 8 0zm0 13a.5.5 0 0 1 .5.5v2a.5.5 0 0 1-1 0v-2A.5.5 0 0 1 8 13zm8-5a.5.5 0 0 1-.5.5h-2a.5.5 0 0 1 0-1h2a.5.5 0 0 1 .5.5zM3 8a.5.5 0 0 1-.5.5h-2a.5.5 0 0 1 0-1h2A.5.5 0 0 1 3 8zm10.657-5.657a.5.5 0 0 1 0 .707l-1.414 1.415a.5.5 0 1 1-.707-.708l1.414-1.414a.5.5 0 0 1 .707 0zm-9.193 9.193a.5.5 0 0 1 0 .707L3.05 13.657a.5.5 0 0 1-.707-.707l1.414-1.414a.5.5 0 0 1 .707 0zm9.193 2.121a.5.5 0 0 1-.707 0l-1.414-1.414a.5.5 0 0 1 .707-.707l1.414 1.414a.5.5 0 0 1 0 .707zM4.464 4.465a.5.5 0 0 1-.707 0L2.343 3.05a.5.5 0 1 1 .707-.707l1.414 1.414a.5.5 0 0 1 0 .708z" />
  </symbol>

  <symbol id="list" viewBox="0 0 16 16">
    <path fill-rule="evenodd" d="M2.5 12a.5.5 0 0 1 .5-.5h10a.5.5 0 0 1 0 1H3a.5.5 0 0 1-.5-.5m0-4a.5.5 0 0 1 .5-.5h10a.5.5 0 0 1 0 1H3a.5.5 0 0 1-.5-.5m0-4a.5.5 0 0 1 .5-.5h10a.5.5 0 0 1 0 1H3a.5.5 0 0 1-.5-.5"/>
  </symbol>
  <symbol id="person-circle" viewBox="0 0 16 16">
    <path d="M11 6a3 3 0 1 1-6 0 3 3 0 0 1 6 0"/>
    <path fill-rule="evenodd" d="M0 8a8 8 0 1 1 16 0A8 8 0 0 1 0 8m8-7a7 7 0 0 0-5.468 11.37C3.242 11.226 4.805 10 8 10s4.757 1.225 5.468 2.37A7 7 0 0 0 8 1"/>
  </symbol>
  <symbol id="translate" viewBox="0 0 16 16">
    <path d="M4.545 6.714 4.11 8H3l1.862-5h1.284L8 8H6.833l-.435-1.286zm1.634-.736L5.5 3.956h-.049l-.679 2.022z"/>
    <path d="M0 2a2 2 0 0 1 2-2h7a2 2 0 0 1 2 2v3h3a2 2 0 0 1 2 2v7a2 2 0 0 1-2 2H7a2 2 0 0 1-2-2v-3H2a2 2 0 0 1-2-2zm2-1a1 1 0 0 0-1 1v7a1 1 0 0 0 1 1h7a1 1 0 0 0 1-1V2a1 1 0 0 0-1-1zm7.138 9.995q.289.451.63.846c-.748.575-1.673 1.001-2.768 1.292.178.217.451.635.555.867 1.125-.359 2.08-.844 2.886-1.494.777.665 1.739 1.165 2.93 1.472.133-.254.414-.673.629-.89-1.125-.253-2.057-.694-2.82-1.284.681-.747 1.222-1.651 1.621-2.757H14V8h-3v1.047h.765c-.318.844-.74 1.546-1.272 2.13a6 6 0 0 1-.415-.492 2 2 0 0 1-.94.31"/>
  </symbol>

  <symbol id="camera" viewBox="0 -960 960 960">
    <path d="M181.92-180q-30.3 0-51.3-21-21-21-21-51.31v-455.38q0-30.31 21-51.31 21-21 51.3-21h455.39q30.3 0 51.3 21 21 21 21 51.31v183.08l140.77-140.77v370.76L709.61-435.39v183.08q0 30.31-21 51.31-21 21-51.3 21H181.92Zm0-60h455.39q5.38 0 8.84-3.46 3.47-3.46 3.47-8.85v-455.38q0-5.39-3.47-8.85-3.46-3.46-8.84-3.46H181.92q-5.38 0-8.84 3.46t-3.46 8.85v455.38q0 5.39 3.46 8.85t8.84 3.46Zm-12.3 0v-480 480Z"/>
  </symbol>
  <symbol id="notification" viewBox="0 -960 960 960">
    <path d="M180-204.62v-59.99h72.31v-298.47q0-80.69 49.81-142.69 49.8-62 127.88-79.31V-810q0-20.83 14.57-35.42Q459.14-860 479.95-860q20.82 0 35.43 14.58Q530-830.83 530-810v24.92q78.08 17.31 127.88 79.31 49.81 62 49.81 142.69v298.47H780v59.99H180Zm300-293.07Zm-.07 405.38q-29.85 0-51.04-21.24-21.2-21.24-21.2-51.07h144.62q0 29.93-21.26 51.12-21.26 21.19-51.12 21.19Zm-167.62-172.3h335.38v-298.47q0-69.46-49.11-118.57-49.12-49.12-118.58-49.12-69.46 0-118.58 49.12-49.11 49.11-49.11 118.57v298.47Z"/>
  </symbol>
  <symbol id="settings" viewBox="0 -960 960 960">
    <path d="m387.69-100-15.23-121.85q-16.07-5.38-32.96-15.07-16.88-9.7-30.19-20.77L196.46-210l-92.3-160 97.61-73.77q-1.38-8.92-1.96-17.92-.58-9-.58-17.93 0-8.53.58-17.34t1.96-19.27L104.16-590l92.3-159.23 112.46 47.31q14.47-11.46 30.89-20.96t32.27-15.27L387.69-860h184.62l15.23 122.23q18 6.54 32.57 15.27 14.58 8.73 29.43 20.58l114-47.31L855.84-590l-99.15 74.92q2.15 9.69 2.35 18.12.19 8.42.19 16.96 0 8.15-.39 16.58-.38 8.42-2.76 19.27L854.46-370l-92.31 160-112.61-48.08q-14.85 11.85-30.31 20.96-15.46 9.12-31.69 14.89L572.31-100H387.69ZM440-160h78.62L533-267.15q30.62-8 55.96-22.73 25.35-14.74 48.89-37.89L737.23-286l39.39-68-86.77-65.38q5-15.54 6.8-30.47 1.81-14.92 1.81-30.15 0-15.62-1.81-30.15-1.8-14.54-6.8-29.7L777.38-606 738-674l-100.54 42.38q-20.08-21.46-48.11-37.92-28.04-16.46-56.73-23.31L520-800h-79.38l-13.24 106.77q-30.61 7.23-56.53 22.15-25.93 14.93-49.47 38.46L222-674l-39.38 68L269-541.62q-5 14.24-7 29.62t-2 32.38q0 15.62 2 30.62 2 15 6.62 29.62l-86 65.38L222-286l99-42q22.77 23.38 48.69 38.31 25.93 14.92 57.31 22.92L440-160Zm40.46-200q49.92 0 84.96-35.04 35.04-35.04 35.04-84.96 0-49.92-35.04-84.96Q530.38-600 480.46-600q-50.54 0-85.27 35.04T360.46-480q0 49.92 34.73 84.96Q429.92-360 480.46-360ZM480-480Z"/>
  </symbol>
  <symbol id="appearance" viewBox="0 -960 960 960">
    <path d="M439.23-100q-24.92 0-42.46-17.54T379.23-160v-184.23H252.69q-30.3 0-51.5-21-21.19-21-21.19-50.93v-271.92q0-54.46 38.92-93.19Q257.85-820 312.69-820H780v403.84q0 29.93-21.39 50.93-21.38 21-51.69 21H580.38V-160q0 24.92-17.53 42.46Q545.31-100 520.38-100h-81.15ZM240-550.77h480V-760h-52.69v154.23h-60V-760h-56.93v79.23h-59.99V-760h-177.7q-30.31 0-51.5 20.81Q240-718.39 240-688.08v137.31Zm12.69 146.54h454.23q5.39 0 9.23-3.46 3.85-3.46 3.85-8.47v-74.61H240v74.61q0 5.01 3.65 8.47 3.66 3.46 9.04 3.46Zm-12.69 0V-490.77-404.23Z"/>
  </symbol>
  <symbol id="accessibility" viewBox="0 -960 960 960">
    <path d="M480-723.85q-30.69 0-52.27-21.57-21.58-21.58-21.58-52.27 0-30.69 21.58-52.27 21.58-21.58 52.27-21.58 30.69 0 52.27 21.58 21.58 21.58 21.58 52.27 0 30.69-21.58 52.27-21.58 21.57-52.27 21.57ZM376.16-90v-521.54q-61.16-5-121.62-14.42-60.46-9.43-114.54-23.27l14.62-60q76.84 19.85 159.27 28.77 82.42 8.92 166.11 8.92 83.69 0 166.11-8.92 82.43-8.92 159.27-28.77l14.62 60q-54.08 13.84-114.54 23.27-60.46 9.42-121.62 14.42V-90h-59.99v-244.62h-87.7V-90h-59.99Z"/>
  </symbol>

  <symbol id="x-lg" viewBox="0 0 16 16">
    <path d="M2.146 2.854a.5.5 0 1 1 .708-.708L8 7.293l5.146-5.147a.5.5 0 0 1 .708.708L8.707 8l5.147 5.146a.5.5 0 0 1-.708.708L8 8.707l-5.146 5.147a.5.5 0 0 1-.708-.708L7.293 8z"/>
  </symbol>
  <symbol id="eye-slash-fill" viewBox="0 0 16 16">
    <path d="m10.79 12.912-1.614-1.615a3.5 3.5 0 0 1-4.474-4.474l-2.06-2.06C.938 6.278 0 8 0 8s3 5.5 8 5.5a7 7 0 0 0 2.79-.588M5.21 3.088A7 7 0 0 1 8 2.5c5 0 8 5.5 8 5.5s-.939 1.721-2.641 3.238l-2.062-2.062a3.5 3.5 0 0 0-4.474-4.474z"/>
    <path d="M5.525 7.646a2.5 2.5 0 0 0 2.829 2.829zm4.95.708-2.829-2.83a2.5 2.5 0 0 1 2.829 2.829zm3.171 6-12-12 .708-.708 12 12z"/>
  </symbol>
  <symbol id="eye-fill" viewBox="0 0 16 16">
    <path d="M10.5 8a2.5 2.5 0 1 1-5 0 2.5 2.5 0 0 1 5 0"/>
    <path d="M0 8s3-5.5 8-5.5S16 8 16 8s-3 5.5-8 5.5S0 8 0 8m8 3.5a3.5 3.5 0 1 0 0-7 3.5 3.5 0 0 0 0 7"/>
  </symbol>
  <symbol id="lock-fill" viewBox="0 0 16 16">
    <path d="M8 1a2 2 0 0 1 2 2v4H6V3a2 2 0 0 1 2-2m3 6V3a3 3 0 0 0-6 0v4a2 2 0 0 0-2 2v5a2 2 0 0 0 2 2h6a2 2 0 0 0 2-2V9a2 2 0 0 0-2-2"/>
  </symbol>
  <symbol id="unlock-fill" viewBox="0 0 16 16">
    <path d="M11 1a2 2 0 0 0-2 2v4a2 2 0 0 1 2 2v5a2 2 0 0 1-2 2H3a2 2 0 0 1-2-2V9a2 2 0 0 1 2-2h5V3a3 3 0 0 1 6 0v4a.5.5 0 0 1-1 0V3a2 2 0 0 0-2-2"/>
  </symbol>
  <symbol id="trash-fill" viewBox="0 0 16 16">
    <path d="M2.5 1a1 1 0 0 0-1 1v1a1 1 0 0 0 1 1H3v9a2 2 0 0 0 2 2h6a2 2 0 0 0 2-2V4h.5a1 1 0 0 0 1-1V2a1 1 0 0 0-1-1H10a1 1 0 0 0-1-1H7a1 1 0 0 0-1 1zm3 4a.5.5 0 0 1 .5.5v7a.5.5 0 0 1-1 0v-7a.5.5 0 0 1 .5-.5M8 5a.5.5 0 0 1 .5.5v7a.5.5 0 0 1-1 0v-7A.5.5 0 0 1 8 5m3 .5v7a.5.5 0 0 1-1 0v-7a.5.5 0 0 1 1 0"/>
  </symbol>
  <symbol id="gear-fill" viewBox="0 0 16 16">
    <path d="M9.405 1.05c-.413-1.4-2.397-1.4-2.81 0l-.1.34a1.464 1.464 0 0 1-2.105.872l-.31-.17c-1.283-.698-2.686.705-1.987 1.987l.169.311c.446.82.023 1.841-.872 2.105l-.34.1c-1.4.413-1.4 2.397 0 2.81l.34.1a1.464 1.464 0 0 1 .872 2.105l-.17.31c-.698 1.283.705 2.686 1.987 1.987l.311-.169a1.464 1.464 0 0 1 2.105.872l.1.34c.413 1.4 2.397 1.4 2.81 0l.1-.34a1.464 1.464 0 0 1 2.105-.872l.31.17c1.283.698 2.686-.705 1.987-1.987l-.169-.311a1.464 1.464 0 0 1 .872-2.105l.34-.1c1.4-.413 1.4-2.397 0-2.81l-.34-.1a1.464 1.464 0 0 1-.872-2.105l.17-.31c.698-1.283-.705-2.686-1.987-1.987l-.311.169a1.464 1.464 0 0 1-2.105-.872zM8 10.93a2.929 2.929 0 1 1 0-5.86 2.929 2.929 0 0 1 0 5.858z"/>
  </symbol>
</svg>