<svg xmlns="http://www.w3.org/2000/svg" class="d-none">
  <symbol id="check2" viewBox="0 0 16 16">
    <path d="M13.854 3.646a.5.5 0 0 1 0 .708l-7 7a.5.5 0 0 1-.708 0l-3.5-3.5a.5.5 0 1 1 .708-.708L6.5 10.293l6.646-6.647a.5.5 0 0 1 .708 0z" />
  </symbol>

  <!-- Header -->
  <symbol id="moon-stars" viewBox="0 0 16 16">
    <path d="M6 .278a.77.77 0 0 1 .08.858 7.2 7.2 0 0 0-.878 3.46c0 4.021 3.278 7.277 7.318 7.277q.792-.001 1.533-.16a.79.79 0 0 1 .81.316.73.73 0 0 1-.031.893A8.35 8.35 0 0 1 8.344 16C3.734 16 0 12.286 0 7.71 0 4.266 2.114 1.312 5.124.06A.75.75 0 0 1 6 .278M4.858 1.311A7.27 7.27 0 0 0 1.025 7.71c0 4.02 3.279 7.276 7.319 7.276a7.32 7.32 0 0 0 5.205-2.162q-.506.063-1.029.063c-4.61 0-8.343-3.714-8.343-8.29 0-1.167.242-2.278.681-3.286"/>
    <path d="M10.794 3.148a.217.217 0 0 1 .412 0l.387 1.162c.173.518.579.924 1.097 1.097l1.162.387a.217.217 0 0 1 0 .412l-1.162.387a1.73 1.73 0 0 0-1.097 1.097l-.387 1.162a.217.217 0 0 1-.412 0l-.387-1.162A1.73 1.73 0 0 0 9.31 6.593l-1.162-.387a.217.217 0 0 1 0-.412l1.162-.387a1.73 1.73 0 0 0 1.097-1.097zM13.863.099a.145.145 0 0 1 .274 0l.258.774c.115.346.386.617.732.732l.774.258a.145.145 0 0 1 0 .274l-.774.258a1.16 1.16 0 0 0-.732.732l-.258.774a.145.145 0 0 1-.274 0l-.258-.774a1.16 1.16 0 0 0-.732-.732l-.774-.258a.145.145 0 0 1 0-.274l.774-.258c.346-.115.617-.386.732-.732z"/>
  </symbol>
  <symbol id="sun" viewBox="0 0 16 16">
    <path d="M8 11a3 3 0 1 1 0-6 3 3 0 0 1 0 6m0 1a4 4 0 1 0 0-8 4 4 0 0 0 0 8M8 0a.5.5 0 0 1 .5.5v2a.5.5 0 0 1-1 0v-2A.5.5 0 0 1 8 0m0 13a.5.5 0 0 1 .5.5v2a.5.5 0 0 1-1 0v-2A.5.5 0 0 1 8 13m8-5a.5.5 0 0 1-.5.5h-2a.5.5 0 0 1 0-1h2a.5.5 0 0 1 .5.5M3 8a.5.5 0 0 1-.5.5h-2a.5.5 0 0 1 0-1h2A.5.5 0 0 1 3 8m10.657-5.657a.5.5 0 0 1 0 .707l-1.414 1.415a.5.5 0 1 1-.707-.708l1.414-1.414a.5.5 0 0 1 .707 0m-9.193 9.193a.5.5 0 0 1 0 .707L3.05 13.657a.5.5 0 0 1-.707-.707l1.414-1.414a.5.5 0 0 1 .707 0m9.193 2.121a.5.5 0 0 1-.707 0l-1.414-1.414a.5.5 0 0 1 .707-.707l1.414 1.414a.5.5 0 0 1 0 .707M4.464 4.465a.5.5 0 0 1-.707 0L2.343 3.05a.5.5 0 1 1 .707-.707l1.414 1.414a.5.5 0 0 1 0 .708"/>
  </symbol>
  <symbol id="list" viewBox="0 0 16 16">
    <path fill-rule="evenodd" d="M2.5 12a.5.5 0 0 1 .5-.5h10a.5.5 0 0 1 0 1H3a.5.5 0 0 1-.5-.5m0-4a.5.5 0 0 1 .5-.5h10a.5.5 0 0 1 0 1H3a.5.5 0 0 1-.5-.5m0-4a.5.5 0 0 1 .5-.5h10a.5.5 0 0 1 0 1H3a.5.5 0 0 1-.5-.5"/>
  </symbol>
  <symbol id="translate" viewBox="0 0 16 16">
    <path d="M4.545 6.714 4.11 8H3l1.862-5h1.284L8 8H6.833l-.435-1.286zm1.634-.736L5.5 3.956h-.049l-.679 2.022z"/>
    <path d="M0 2a2 2 0 0 1 2-2h7a2 2 0 0 1 2 2v3h3a2 2 0 0 1 2 2v7a2 2 0 0 1-2 2H7a2 2 0 0 1-2-2v-3H2a2 2 0 0 1-2-2zm2-1a1 1 0 0 0-1 1v7a1 1 0 0 0 1 1h7a1 1 0 0 0 1-1V2a1 1 0 0 0-1-1zm7.138 9.995q.289.451.63.846c-.748.575-1.673 1.001-2.768 1.292.178.217.451.635.555.867 1.125-.359 2.08-.844 2.886-1.494.777.665 1.739 1.165 2.93 1.472.133-.254.414-.673.629-.89-1.125-.253-2.057-.694-2.82-1.284.681-.747 1.222-1.651 1.621-2.757H14V8h-3v1.047h.765c-.318.844-.74 1.546-1.272 2.13a6 6 0 0 1-.415-.492 2 2 0 0 1-.94.31"/>
  </symbol>

  <!-- Aside -->
  <symbol id="camera" viewBox="0 -960 960 960">
    <path d="M181.92-180q-30.3 0-51.3-21-21-21-21-51.31v-455.38q0-30.31 21-51.31 21-21 51.3-21h455.39q30.3 0 51.3 21 21 21 21 51.31v183.08l140.77-140.77v370.76L709.61-435.39v183.08q0 30.31-21 51.31-21 21-51.3 21H181.92Zm0-60h455.39q5.38 0 8.84-3.46 3.47-3.46 3.47-8.85v-455.38q0-5.39-3.47-8.85-3.46-3.46-8.84-3.46H181.92q-5.38 0-8.84 3.46t-3.46 8.85v455.38q0 5.39 3.46 8.85t8.84 3.46Zm-12.3 0v-480 480Z"/>
  </symbol>
  <symbol id="notification" viewBox="0 -960 960 960">
    <path d="M180-204.62v-59.99h72.31v-298.47q0-80.69 49.81-142.69 49.8-62 127.88-79.31V-810q0-20.83 14.57-35.42Q459.14-860 479.95-860q20.82 0 35.43 14.58Q530-830.83 530-810v24.92q78.08 17.31 127.88 79.31 49.81 62 49.81 142.69v298.47H780v59.99H180Zm300-293.07Zm-.07 405.38q-29.85 0-51.04-21.24-21.2-21.24-21.2-51.07h144.62q0 29.93-21.26 51.12-21.26 21.19-51.12 21.19Zm-167.62-172.3h335.38v-298.47q0-69.46-49.11-118.57-49.12-49.12-118.58-49.12-69.46 0-118.58 49.12-49.11 49.11-49.11 118.57v298.47Z"/>
  </symbol>

  <!-- 확정 -->
  <symbol id="bootstrap" viewBox="0 0 16 16">
    <path d="M5.062 12h3.475c1.804 0 2.888-.908 2.888-2.396 0-1.102-.761-1.916-1.904-2.034v-.1c.832-.14 1.482-.93 1.482-1.816 0-1.3-.955-2.11-2.542-2.11H5.062zm1.313-4.875V4.658h1.78c.973 0 1.542.457 1.542 1.237 0 .802-.604 1.23-1.764 1.23zm0 3.762V8.162h1.822c1.236 0 1.887.463 1.887 1.348 0 .896-.627 1.377-1.811 1.377z"/>
    <path d="M0 4a4 4 0 0 1 4-4h8a4 4 0 0 1 4 4v8a4 4 0 0 1-4 4H4a4 4 0 0 1-4-4zm4-3a3 3 0 0 0-3 3v8a3 3 0 0 0 3 3h8a3 3 0 0 0 3-3V4a3 3 0 0 0-3-3z"/>
  </symbol>
  <symbol id="bootstrap-fill" viewBox="0 0 16 16">
    <path d="M6.375 7.125V4.658h1.78c.973 0 1.542.457 1.542 1.237 0 .802-.604 1.23-1.764 1.23zm0 3.762h1.898c1.184 0 1.81-.48 1.81-1.377 0-.885-.65-1.348-1.886-1.348H6.375z"/>
    <path d="M4.002 0a4 4 0 0 0-4 4v8a4 4 0 0 0 4 4h8a4 4 0 0 0 4-4V4a4 4 0 0 0-4-4zm1.06 12V3.545h3.399c1.587 0 2.543.809 2.543 2.11 0 .884-.65 1.675-1.483 1.816v.1c1.143.117 1.904.931 1.904 2.033 0 1.488-1.084 2.396-2.888 2.396z"/>
  </symbol>
  <symbol id="x-lg" viewBox="0 0 16 16">
    <path d="M2.146 2.854a.5.5 0 1 1 .708-.708L8 7.293l5.146-5.147a.5.5 0 0 1 .708.708L8.707 8l5.147 5.146a.5.5 0 0 1-.708.708L8 8.707l-5.146 5.147a.5.5 0 0 1-.708-.708L7.293 8z"/>
  </symbol>
  <symbol id="chevron-right" viewBox="0 0 16 16">
    <path fill-rule="evenodd" d="M4.646 1.646a.5.5 0 0 1 .708 0l6 6a.5.5 0 0 1 0 .708l-6 6a.5.5 0 0 1-.708-.708L10.293 8 4.646 2.354a.5.5 0 0 1 0-.708"/>
  </symbol>
  <symbol id="chevron-down" viewBox="0 0 16 16">
    <path fill-rule="evenodd" d="M1.646 4.646a.5.5 0 0 1 .708 0L8 10.293l5.646-5.647a.5.5 0 0 1 .708.708l-6 6a.5.5 0 0 1-.708 0l-6-6a.5.5 0 0 1 0-.708"/>
  </symbol>
  <symbol id="three-dots" viewBox="0 0 16 16">
    <path d="M3 9.5a1.5 1.5 0 1 1 0-3 1.5 1.5 0 0 1 0 3m5 0a1.5 1.5 0 1 1 0-3 1.5 1.5 0 0 1 0 3m5 0a1.5 1.5 0 1 1 0-3 1.5 1.5 0 0 1 0 3"/>
  </symbol>
  <symbol id="plus-lg" viewBox="0 0 16 16">
    <path fill-rule="evenodd" d="M8 2a.5.5 0 0 1 .5.5v5h5a.5.5 0 0 1 0 1h-5v5a.5.5 0 0 1-1 0v-5h-5a.5.5 0 0 1 0-1h5v-5A.5.5 0 0 1 8 2"/>
  </symbol>
  <symbol id="folder-fill" viewBox="0 0 16 16">
    <path d="M9.828 3h3.982a2 2 0 0 1 1.992 2.181l-.637 7A2 2 0 0 1 13.174 14H2.825a2 2 0 0 1-1.991-1.819l-.637-7a2 2 0 0 1 .342-1.31L.5 3a2 2 0 0 1 2-2h3.672a2 2 0 0 1 1.414.586l.828.828A2 2 0 0 0 9.828 3m-8.322.12q.322-.119.684-.12h5.396l-.707-.707A1 1 0 0 0 6.172 2H2.5a1 1 0 0 0-1 .981z"/>
  </symbol>
  <symbol id="file-text-fill" viewBox="0 0 16 16">
    <path d="M12 0H4a2 2 0 0 0-2 2v12a2 2 0 0 0 2 2h8a2 2 0 0 0 2-2V2a2 2 0 0 0-2-2M5 4h6a.5.5 0 0 1 0 1H5a.5.5 0 0 1 0-1m-.5 2.5A.5.5 0 0 1 5 6h6a.5.5 0 0 1 0 1H5a.5.5 0 0 1-.5-.5M5 8h6a.5.5 0 0 1 0 1H5a.5.5 0 0 1 0-1m0 2h3a.5.5 0 0 1 0 1H5a.5.5 0 0 1 0-1"/>
  </symbol>
  <symbol id="erase-fill" viewBox="0 0 16 16">
    <path d="M8.086 2.207a2 2 0 0 1 2.828 0l3.879 3.879a2 2 0 0 1 0 2.828l-5.5 5.5A2 2 0 0 1 7.879 15H5.12a2 2 0 0 1-1.414-.586l-2.5-2.5a2 2 0 0 1 0-2.828zm.66 11.34L3.453 8.254 1.914 9.793a1 1 0 0 0 0 1.414l2.5 2.5a1 1 0 0 0 .707.293H7.88a1 1 0 0 0 .707-.293z"/>
  </symbol>
  <symbol id="list" viewBox="0 0 16 16">
    <path fill-rule="evenodd" d="M2.5 12a.5.5 0 0 1 .5-.5h10a.5.5 0 0 1 0 1H3a.5.5 0 0 1-.5-.5m0-4a.5.5 0 0 1 .5-.5h10a.5.5 0 0 1 0 1H3a.5.5 0 0 1-.5-.5m0-4a.5.5 0 0 1 .5-.5h10a.5.5 0 0 1 0 1H3a.5.5 0 0 1-.5-.5"/>
  </symbol>

  <symbol id="play-fill" viewBox="0 0 16 16">
    <path d="m11.596 8.697-6.363 3.692c-.54.313-1.233-.066-1.233-.697V4.308c0-.63.692-1.01 1.233-.696l6.363 3.692a.802.802 0 0 1 0 1.393"/>
  </symbol>
  <symbol id="floppy2-fill" viewBox="0 0 16 16">
    <path d="M12 2h-2v3h2z"/>
    <path d="M1.5 0A1.5 1.5 0 0 0 0 1.5v13A1.5 1.5 0 0 0 1.5 16h13a1.5 1.5 0 0 0 1.5-1.5V2.914a1.5 1.5 0 0 0-.44-1.06L14.147.439A1.5 1.5 0 0 0 13.086 0zM4 6a1 1 0 0 1-1-1V1h10v4a1 1 0 0 1-1 1zM3 9h10a1 1 0 0 1 1 1v5H2v-5a1 1 0 0 1 1-1"/>
  </symbol>

  <!-- 후보 -->
  <symbol id="eye" viewBox="0 0 16 16">
    <path d="M16 8s-3-5.5-8-5.5S0 8 0 8s3 5.5 8 5.5S16 8 16 8M1.173 8a13 13 0 0 1 1.66-2.043C4.12 4.668 5.88 3.5 8 3.5s3.879 1.168 5.168 2.457A13 13 0 0 1 14.828 8q-.086.13-.195.288c-.335.48-.83 1.12-1.465 1.755C11.879 11.332 10.119 12.5 8 12.5s-3.879-1.168-5.168-2.457A13 13 0 0 1 1.172 8z"/>
    <path d="M8 5.5a2.5 2.5 0 1 0 0 5 2.5 2.5 0 0 0 0-5M4.5 8a3.5 3.5 0 1 1 7 0 3.5 3.5 0 0 1-7 0"/>
  </symbol>
  <symbol id="eye-fill" viewBox="0 0 16 16">
    <path d="M10.5 8a2.5 2.5 0 1 1-5 0 2.5 2.5 0 0 1 5 0"/>
    <path d="M0 8s3-5.5 8-5.5S16 8 16 8s-3 5.5-8 5.5S0 8 0 8m8 3.5a3.5 3.5 0 1 0 0-7 3.5 3.5 0 0 0 0 7"/>
  </symbol>
  <symbol id="eye-slash-fill" viewBox="0 0 16 16">
    <path d="m10.79 12.912-1.614-1.615a3.5 3.5 0 0 1-4.474-4.474l-2.06-2.06C.938 6.278 0 8 0 8s3 5.5 8 5.5a7 7 0 0 0 2.79-.588M5.21 3.088A7 7 0 0 1 8 2.5c5 0 8 5.5 8 5.5s-.939 1.721-2.641 3.238l-2.062-2.062a3.5 3.5 0 0 0-4.474-4.474z"/>
    <path d="M5.525 7.646a2.5 2.5 0 0 0 2.829 2.829zm4.95.708-2.829-2.83a2.5 2.5 0 0 1 2.829 2.829zm3.171 6-12-12 .708-.708 12 12z"/>
  </symbol>
  <symbol id="bell" viewBox="0 0 16 16">
    <path d="M8 16a2 2 0 0 0 2-2H6a2 2 0 0 0 2 2M8 1.918l-.797.161A4 4 0 0 0 4 6c0 .628-.134 2.197-.459 3.742-.16.767-.376 1.566-.663 2.258h10.244c-.287-.692-.502-1.49-.663-2.258C12.134 8.197 12 6.628 12 6a4 4 0 0 0-3.203-3.92zM14.22 12c.223.447.481.801.78 1H1c.299-.199.557-.553.78-1C2.68 10.2 3 6.88 3 6c0-2.42 1.72-4.44 4.005-4.901a1 1 0 1 1 1.99 0A5 5 0 0 1 13 6c0 .88.32 4.2 1.22 6"/>
  </symbol>
  <symbol id="bell-fill" viewBox="0 0 16 16">
    <path d="M8 16a2 2 0 0 0 2-2H6a2 2 0 0 0 2 2m.995-14.901a1 1 0 1 0-1.99 0A5 5 0 0 0 3 6c0 1.098-.5 6-2 7h14c-1.5-1-2-5.902-2-7 0-2.42-1.72-4.44-4.005-4.901"/>
  </symbol>
  <symbol id="lock-fill" viewBox="0 0 16 16">
    <path d="M8 1a2 2 0 0 1 2 2v4H6V3a2 2 0 0 1 2-2m3 6V3a3 3 0 0 0-6 0v4a2 2 0 0 0-2 2v5a2 2 0 0 0 2 2h6a2 2 0 0 0 2-2V9a2 2 0 0 0-2-2"/>
  </symbol>
  <symbol id="unlock-fill" viewBox="0 0 16 16">
    <path d="M11 1a2 2 0 0 0-2 2v4a2 2 0 0 1 2 2v5a2 2 0 0 1-2 2H3a2 2 0 0 1-2-2V9a2 2 0 0 1 2-2h5V3a3 3 0 0 1 6 0v4a.5.5 0 0 1-1 0V3a2 2 0 0 0-2-2"/>
  </symbol>
  <symbol id="grid-2x2" viewBox="0 -960 960 960">
    <path d="M509-451h293v210.38q0 34.66-23.63 58.64Q754.74-158 719.38-158H509v-293Zm0-58v-293h210.38q35.36 0 58.99 23.63Q802-754.74 802-719.38V-509H509Zm-58 0H158v-210.38q0-35.36 23.98-58.99Q205.96-802 240.62-802H451v293Zm0 58v293H240.62q-34.66 0-58.64-23.98Q158-205.96 158-240.62V-451h293Z"/>
  </symbol>
  <symbol id="grid-3x3" viewBox="0 -960 960 960">
    <path d="M234.62-152H349v-196.23H152v113.61q0 35.36 23.63 58.99Q199.26-152 234.62-152ZM381-152h198v-196.23H381V-152Zm230 0h114.38q35.36 0 58.99-23.63Q808-199.26 808-234.62v-113.61H611V-152ZM152-380.23h197v-199.54H152v199.54Zm229 0h198v-199.54H381v199.54Zm230 0h197v-199.54H611v199.54ZM152-611.77h197V-808H234.62q-35.36 0-58.99 23.63Q152-760.74 152-725.38v113.61Zm229 0h198V-808H381v196.23Zm230 0h197v-113.61q0-35.36-23.63-58.99Q760.74-808 725.38-808H611v196.23Z"/>
  </symbol>
  <symbol id="gear-fill" viewBox="0 0 16 16">
    <path d="M9.405 1.05c-.413-1.4-2.397-1.4-2.81 0l-.1.34a1.464 1.464 0 0 1-2.105.872l-.31-.17c-1.283-.698-2.686.705-1.987 1.987l.169.311c.446.82.023 1.841-.872 2.105l-.34.1c-1.4.413-1.4 2.397 0 2.81l.34.1a1.464 1.464 0 0 1 .872 2.105l-.17.31c-.698 1.283.705 2.686 1.987 1.987l.311-.169a1.464 1.464 0 0 1 2.105.872l.1.34c.413 1.4 2.397 1.4 2.81 0l.1-.34a1.464 1.464 0 0 1 2.105-.872l.31.17c1.283.698 2.686-.705 1.987-1.987l-.169-.311a1.464 1.464 0 0 1 .872-2.105l.34-.1c1.4-.413 1.4-2.397 0-2.81l-.34-.1a1.464 1.464 0 0 1-.872-2.105l.17-.31c.698-1.283-.705-2.686-1.987-1.987l-.311.169a1.464 1.464 0 0 1-2.105-.872zM8 10.93a2.929 2.929 0 1 1 0-5.86 2.929 2.929 0 0 1 0 5.858z"/>
  </symbol>
  <symbol id="gear-wide" viewBox="0 0 16 16">
    <path d="M7.068.727c.243-.97 1.62-.97 1.864 0l.071.286a.96.96 0 0 0 1.622.434l.205-.211c.695-.719 1.888-.03 1.613.931l-.08.284a.96.96 0 0 0 1.187 1.187l.283-.081c.96-.275 1.65.918.931 1.613l-.211.205a.96.96 0 0 0 .434 1.622l.286.071c.97.243.97 1.62 0 1.864l-.286.071a.96.96 0 0 0-.434 1.622l.211.205c.719.695.03 1.888-.931 1.613l-.284-.08a.96.96 0 0 0-1.187 1.187l.081.283c.275.96-.918 1.65-1.613.931l-.205-.211a.96.96 0 0 0-1.622.434l-.071.286c-.243.97-1.62.97-1.864 0l-.071-.286a.96.96 0 0 0-1.622-.434l-.205.211c-.695.719-1.888.03-1.613-.931l.08-.284a.96.96 0 0 0-1.186-1.187l-.284.081c-.96.275-1.65-.918-.931-1.613l.211-.205a.96.96 0 0 0-.434-1.622l-.286-.071c-.97-.243-.97-1.62 0-1.864l.286-.071a.96.96 0 0 0 .434-1.622l-.211-.205c-.719-.695-.03-1.888.931-1.613l.284.08a.96.96 0 0 0 1.187-1.186l-.081-.284c-.275-.96.918-1.65 1.613-.931l.205.211a.96.96 0 0 0 1.622-.434zM12.973 8.5H8.25l-2.834 3.779A4.998 4.998 0 0 0 12.973 8.5m0-1a4.998 4.998 0 0 0-7.557-3.779l2.834 3.78zM5.048 3.967l-.087.065zm-.431.355A4.98 4.98 0 0 0 3.002 8c0 1.455.622 2.765 1.615 3.678L7.375 8zm.344 7.646.087.065z"/>
  </symbol>
  <symbol id="tools" viewBox="0 0 16 16">
    <path d="M1 0 0 1l2.2 3.081a1 1 0 0 0 .815.419h.07a1 1 0 0 1 .708.293l2.675 2.675-2.617 2.654A3.003 3.003 0 0 0 0 13a3 3 0 1 0 5.878-.851l2.654-2.617.968.968-.305.914a1 1 0 0 0 .242 1.023l3.27 3.27a.997.997 0 0 0 1.414 0l1.586-1.586a.997.997 0 0 0 0-1.414l-3.27-3.27a1 1 0 0 0-1.023-.242L10.5 9.5l-.96-.96 2.68-2.643A3.005 3.005 0 0 0 16 3q0-.405-.102-.777l-2.14 2.141L12 4l-.364-1.757L13.777.102a3 3 0 0 0-3.675 3.68L7.462 6.46 4.793 3.793a1 1 0 0 1-.293-.707v-.071a1 1 0 0 0-.419-.814zm9.646 10.646a.5.5 0 0 1 .708 0l2.914 2.915a.5.5 0 0 1-.707.707l-2.915-2.914a.5.5 0 0 1 0-.708M3 11l.471.242.529.026.287.445.445.287.026.529L5 13l-.242.471-.026.529-.445.287-.287.445-.529.026L3 15l-.471-.242L2 14.732l-.287-.445L1.268 14l-.026-.529L1 13l.242-.471.026-.529.445-.287.287-.445.529-.026z"/>
  </symbol>
  <symbol id="bounding-box" viewBox="0 0 16 16">
    <path d="M2 1a1 1 0 1 0 0 2 1 1 0 0 0 0-2M0 2a2 2 0 0 1 3.937-.5h8.126A2 2 0 1 1 14.5 3.937v8.126a2 2 0 1 1-2.437 2.437H3.937A2 2 0 1 1 1.5 12.063V3.937A2 2 0 0 1 0 2m2.5 1.937v8.126c.703.18 1.256.734 1.437 1.437h8.126a2 2 0 0 1 1.437-1.437V3.937A2 2 0 0 1 12.063 2.5H3.937A2 2 0 0 1 2.5 3.937M14 1a1 1 0 1 0 0 2 1 1 0 0 0 0-2M2 13a1 1 0 1 0 0 2 1 1 0 0 0 0-2m12 0a1 1 0 1 0 0 2 1 1 0 0 0 0-2"/>
  </symbol>
  <symbol id="trash-fill" viewBox="0 0 16 16">
    <path d="M2.5 1a1 1 0 0 0-1 1v1a1 1 0 0 0 1 1H3v9a2 2 0 0 0 2 2h6a2 2 0 0 0 2-2V4h.5a1 1 0 0 0 1-1V2a1 1 0 0 0-1-1H10a1 1 0 0 0-1-1H7a1 1 0 0 0-1 1zm3 4a.5.5 0 0 1 .5.5v7a.5.5 0 0 1-1 0v-7a.5.5 0 0 1 .5-.5M8 5a.5.5 0 0 1 .5.5v7a.5.5 0 0 1-1 0v-7A.5.5 0 0 1 8 5m3 .5v7a.5.5 0 0 1-1 0v-7a.5.5 0 0 1 1 0"/>
  </symbol>
  
  <symbol id="plus" viewBox="0 0 16 16">
    <path d="M8 4a.5.5 0 0 1 .5.5v3h3a.5.5 0 0 1 0 1h-3v3a.5.5 0 0 1-1 0v-3h-3a.5.5 0 0 1 0-1h3v-3A.5.5 0 0 1 8 4"/>
  </symbol>
  <symbol id="minus" viewBox="0 0 16 16">
    <path d="M4 8a.5.5 0 0 1 .5-.5h7a.5.5 0 0 1 0 1h-7A.5.5 0 0 1 4 8"/>
  </symbol>
  <symbol id="dot" viewBox="0 0 16 16">
    <path d="M8 9.5a1.5 1.5 0 1 0 0-3 1.5 1.5 0 0 0 0 3"/>
  </symbol>
  <symbol id="zoom-in" viewBox="0 0 16 16">
    <path fill-rule="evenodd" d="M6.5 12a5.5 5.5 0 1 0 0-11 5.5 5.5 0 0 0 0 11M13 6.5a6.5 6.5 0 1 1-13 0 6.5 6.5 0 0 1 13 0"/>
    <path d="M10.344 11.742q.044.06.098.115l3.85 3.85a1 1 0 0 0 1.415-1.414l-3.85-3.85a1 1 0 0 0-.115-.1 6.5 6.5 0 0 1-1.398 1.4z"/>
    <path fill-rule="evenodd" d="M6.5 3a.5.5 0 0 1 .5.5V6h2.5a.5.5 0 0 1 0 1H7v2.5a.5.5 0 0 1-1 0V7H3.5a.5.5 0 0 1 0-1H6V3.5a.5.5 0 0 1 .5-.5"/>
  </symbol>
  <symbol id="sun" viewBox="0 0 16 16">
    <path d="M8 11a3 3 0 1 1 0-6 3 3 0 0 1 0 6m0 1a4 4 0 1 0 0-8 4 4 0 0 0 0 8M8 0a.5.5 0 0 1 .5.5v2a.5.5 0 0 1-1 0v-2A.5.5 0 0 1 8 0m0 13a.5.5 0 0 1 .5.5v2a.5.5 0 0 1-1 0v-2A.5.5 0 0 1 8 13m8-5a.5.5 0 0 1-.5.5h-2a.5.5 0 0 1 0-1h2a.5.5 0 0 1 .5.5M3 8a.5.5 0 0 1-.5.5h-2a.5.5 0 0 1 0-1h2A.5.5 0 0 1 3 8m10.657-5.657a.5.5 0 0 1 0 .707l-1.414 1.415a.5.5 0 1 1-.707-.708l1.414-1.414a.5.5 0 0 1 .707 0m-9.193 9.193a.5.5 0 0 1 0 .707L3.05 13.657a.5.5 0 0 1-.707-.707l1.414-1.414a.5.5 0 0 1 .707 0m9.193 2.121a.5.5 0 0 1-.707 0l-1.414-1.414a.5.5 0 0 1 .707-.707l1.414 1.414a.5.5 0 0 1 0 .707M4.464 4.465a.5.5 0 0 1-.707 0L2.343 3.05a.5.5 0 1 1 .707-.707l1.414 1.414a.5.5 0 0 1 0 .708"/>
  </symbol>

  <symbol id="new-folder" viewBox="0 -960 960 960">
    <path d="M565.13-330h50.25v-84.87h84.88v-50.26h-84.88V-550h-50.25v84.87h-84.87v50.26h84.87V-330ZM162.57-180q-25.79 0-44.18-18.57-18.39-18.56-18.39-44v-474.86q0-25.44 18.39-44Q136.78-780 162.57-780h239.51l70.25 70.26h325.1q25.44 0 44 18.56 18.57 18.57 18.57 44v404.61q0 25.44-18.57 44-18.56 18.57-44 18.57H162.57Zm0-50.26h634.86q5.39 0 8.85-3.46t3.46-8.85v-404.61q0-5.38-3.46-8.85-3.46-3.46-8.85-3.46H451.85l-70.26-70.25H162.57q-5.39 0-8.85 3.46t-3.46 8.85v474.86q0 5.39 3.46 8.85t8.85 3.46Zm-12.31 0v-499.48 499.48Z"/>
  </symbol>
  <symbol id="new-file" viewBox="0 -960 960 960">
    <path d="M454-250h52v-108h108v-52H506v-108h-52v108H346v52h108v108ZM276.03-116q-27.03 0-45.53-18.65T212-180.31v-599.38q0-27.01 18.65-45.66Q249.3-844 276.31-844H586l162 162v501.69q0 27.01-18.66 45.66Q710.68-116 683.65-116H276.03ZM548-644v-148H276.31q-4.62 0-8.46 3.85-3.85 3.84-3.85 8.46v599.38q0 4.62 3.85 8.46 3.84 3.85 8.46 3.85h407.38q4.62 0 8.46-3.85 3.85-3.84 3.85-8.46V-644H548ZM264-792v169-169V-168v-624Z"/>
  </symbol>
  <symbol id="refresh" viewBox="0 -960 960 960">
    <path d="M481.54-212q-111.63 0-189.81-78.17-78.19-78.17-78.19-189.77 0-111.6 78.19-189.83Q369.91-748 481.54-748q66.15 0 121.27 29.69 55.11 29.7 91.65 78.54V-748h52v204.61H541.85v-51.99h121q-28.62-45.93-76.2-73.27Q539.08-696 481.54-696q-90 0-153 63t-63 153q0 90 63 153t153 63q84 0 144-55.5t69-136.5h53.23q-8.23 103.92-84.27 173.96Q587.46-212 481.54-212Z"/>
  </symbol>
  <symbol id="slide-right" viewBox="0 -960 960 960">
    <path d="M160-760v560h251.15v-560H160Zm-60 620v-680h680v142.31h-60V-760H471.15v560H720v-82.31h60V-140H100Zm371.15-340Zm-60 0h60-60Zm0 0ZM720-370v-80h-80v-60h80v-80h60v80h80v60h-80v80h-60Z"/>
  </symbol>
  <symbol id="slide-left" viewBox="0 -960 960 960">
    <path d="M800-200v-560H548.85v560H800Zm-620 60v-142.31h60V-200h248.85v-560H240v82.31h-60V-820h680v680H180Zm308.85-340Zm60 0h-60 60Zm0 0ZM180-370v-80h-80v-60h80v-80h60v80h80v60h-80v80h-60Z"/>
  </symbol>
  <symbol id="detection-zone" viewBox="0 -960 960 960">
    <path d="M100-680v-107.69Q100-818 121-839q21-21 51.31-21H280v60H172.31q-4.62 0-8.46 3.85-3.85 3.84-3.85 8.46V-680h-60Zm180 580H172.31Q142-100 121-121q-21-21-21-51.31V-280h60v107.69q0 4.62 3.85 8.46 3.84 3.85 8.46 3.85H280v60Zm400 0v-60h107.69q4.62 0 8.46-3.85 3.85-3.84 3.85-8.46V-280h60v107.69Q860-142 839-121q-21 21-51.31 21H680Zm120-580v-107.69q0-4.62-3.85-8.46-3.84-3.85-8.46-3.85H680v-60h107.69Q818-860 839-839q21 21 21 51.31V-680h-60Zm-260 93.85q-30.69 0-52.27-21.58-21.58-21.58-21.58-52.27 0-30.69 21.58-52.27 21.58-21.58 52.27-21.58 30.69 0 52.27 21.58 21.58 21.58 21.58 52.27 0 30.69-21.58 52.27-21.58 21.58-52.27 21.58Zm-35.69 333.84h-140l40.77-208.61L310-422.54V-290h-60v-171.85l158.77-67.23q30.38-12.69 44.77-16.8Q467.92-550 480-550q18.31 0 34 9.65 15.69 9.66 25.54 25.74l40 64q25.61 41.23 70.11 69.38T750-350.77v60q-61-1.92-117.92-31.35-56.93-29.42-97.08-85.19l-30.69 155Z"/>
  </symbol>
  <symbol id="detection-sound" viewBox="0 -960 960 960">
    <path d="M214-100v-381.92h60V-160h290v-188.77l101.92-102.31q30.16-30.15 46.73-68.27 16.58-38.11 16.58-80.65 0-41.92-16.69-79.85-16.69-37.92-46.23-68.07L634-781.23 502.77-650h-150l-53 53L257-638.77 328.23-710h150L634-865.77l75.08 74.69q38.46 38.47 59.11 87.43 20.66 48.96 21.04 103.65-.38 54.69-21.04 103.65-20.65 48.96-59.11 87.43L624-324.23V-100H214Zm186.62-181.62-200.7-200.3q-9.84-9.85-14.88-22.93Q180-517.92 180-532q0-14.08 5.04-26.65 5.04-12.58 14.88-22.43L277-658.77l117.08 115.69q26.84 26.85 41.19 61.43 14.35 34.57 14.35 72.65 0 35.38-12.31 68.04-12.31 32.65-36.69 59.34Z"/>
  </symbol>
  <symbol id="accessibility" viewBox="0 -960 960 960">
    <path d="M480-724.62q-30.46 0-52.15-21.69-21.7-21.69-21.7-52.15 0-30.46 21.7-52.15 21.69-21.7 52.15-21.7 30.46 0 52.15 21.7 21.7 21.69 21.7 52.15 0 30.46-21.7 52.15-21.69 21.69-52.15 21.69ZM376.16-90v-521.54H139.23v-60h681.54v60H583.84V-90h-59.99v-230h-87.7v230h-59.99Z"/>
  </symbol>
  <symbol id="stylus-note" viewBox="0 -960 960 960">
    <path d="m487.46-283.15 332.31-332.31q2.69-2.69 2.69-6.54t-2.69-6.54l-38.92-38.92q-2.7-2.69-6.54-2.69-3.85 0-6.54 2.69L435.46-335.15l52 52Zm-251 72.38q-89.23-5-134-39.69-44.77-34.69-44.77-98.16 0-60.76 51-98.57 51-37.81 141.77-45.81 43.62-3.77 65.43-15.77 21.8-12 21.8-33.23 0-29.46-29.5-44.96t-96.73-22.27l5.46-59.62q92.23 8.77 136.5 39.77 44.27 31 44.27 87.08 0 47.61-36.57 75.5-36.58 27.88-106.2 33.5-68.61 5.77-102.92 26.77t-34.31 57.61q0 37.31 28.58 55.51 28.58 18.19 92.65 22.34l-2.46 60Zm260.38 3.15L359.92-344.54l373.54-373.15q17.69-17.69 41.35-17.5 23.65.19 41.34 17.5L870-663.85q17.69 17.7 17.69 41.54 0 23.85-17.69 41.54L496.84-207.62ZM363.23-180q-13.54 3.23-23.84-7.08-10.31-10.31-7.08-23.84l27.61-133.62 136.92 136.92L363.23-180Z"/>
  </symbol>

  <symbol id="arrow-drop" viewBox="0 -960 960 960">
    <path d="m280-400 200-200 200 200H280Z"/>
  </symbol>
  <symbol id="stop-circle" viewBox="0 -960 960 960">
    <path d="M346-346h268v-268H346v268Zm134.34 230q-75.11 0-141.48-28.42-66.37-28.42-116.18-78.21-49.81-49.79-78.25-116.09Q116-405.01 116-480.39q0-75.38 28.42-141.25t78.21-115.68q49.79-49.81 116.09-78.25Q405.01-844 480.39-844q75.38 0 141.25 28.42t115.68 78.21q49.81 49.79 78.25 115.85Q844-555.45 844-480.34q0 75.11-28.42 141.48-28.42 66.37-78.21 116.18-49.79 49.81-115.85 78.25Q555.45-116 480.34-116Zm-.34-52q130 0 221-91t91-221q0-130-91-221t-221-91q-130 0-221 91t-91 221q0 130 91 221t221 91Zm0-312Z"/>
  </symbol>
  <symbol id="focus" viewBox="0 -960 960 960">
    <path d="M480-344.85q-56.23 0-95.69-39.46T344.85-480q0-56.23 39.46-95.69T480-615.15q56.23 0 95.69 39.46T615.15-480q0 56.23-39.46 95.69T480-344.85Zm-.06-55.96q32.64 0 55.95-23.24 23.3-23.25 23.3-55.89t-23.24-55.95q-23.25-23.3-55.89-23.3t-55.95 23.24q-23.3 23.25-23.3 55.89t23.24 55.95q23.25 23.3 55.89 23.3ZM480-480ZM216.38-148.08q-28.47 0-48.39-19.91-19.91-19.92-19.91-48.39v-146.04h55.96v146.07q0 4.62 3.84 8.47 3.85 3.84 8.47 3.84h146.07v55.96H216.38Zm381.2 0v-55.96h146.07q4.62 0 8.47-3.84 3.84-3.85 3.84-8.47v-146.07h55.96v146.04q0 28.47-19.91 48.39-19.92 19.91-48.39 19.91H597.58Zm-449.5-449.5v-146.04q0-28.47 19.91-48.39 19.92-19.91 48.39-19.91h146.04v55.96H216.35q-4.62 0-8.47 3.84-3.84 3.85-3.84 8.47v146.07h-55.96Zm607.88 0v-146.07q0-4.62-3.84-8.47-3.85-3.84-8.47-3.84H597.58v-55.96h146.04q28.47 0 48.39 19.91 19.91 19.92 19.91 48.39v146.04h-55.96Z"/>
  </symbol>
</svg>