<?xml version="1.0" encoding="UTF-8" standalone="no"?>
<!-- Created with Inkscape (http://www.inkscape.org/) -->

<svg
   width="640"
   height="360"
   viewBox="0 0 169.33333 95.249999"
   version="1.1"
   id="svg1"
   xml:space="preserve"
   inkscape:version="1.3.1 (9b9bdc1480, 2023-11-25, custom)"
   sodipodi:docname="nocam_loge.svg"
   xmlns:inkscape="http://www.inkscape.org/namespaces/inkscape"
   xmlns:sodipodi="http://sodipodi.sourceforge.net/DTD/sodipodi-0.dtd"
   xmlns="http://www.w3.org/2000/svg"
   xmlns:svg="http://www.w3.org/2000/svg"><sodipodi:namedview
     id="namedview1"
     pagecolor="#ffffff"
     bordercolor="#000000"
     borderopacity="0.25"
     inkscape:showpageshadow="2"
     inkscape:pageopacity="0.0"
     inkscape:pagecheckerboard="0"
     inkscape:deskcolor="#d1d1d1"
     inkscape:document-units="mm"
     inkscape:zoom="1.4396184"
     inkscape:cx="283.75576"
     inkscape:cy="165.32159"
     inkscape:window-width="1872"
     inkscape:window-height="1011"
     inkscape:window-x="48"
     inkscape:window-y="32"
     inkscape:window-maximized="1"
     inkscape:current-layer="layer1" /><defs
     id="defs1"><linearGradient
       id="swatch13"
       inkscape:swatch="solid"><stop
         style="stop-color:#000000;stop-opacity:1;"
         offset="0"
         id="stop13" /></linearGradient><linearGradient
       id="swatch12"
       inkscape:swatch="solid"><stop
         style="stop-color:#000000;stop-opacity:1;"
         offset="0"
         id="stop12" /></linearGradient><rect
       x="97.628715"
       y="100.36549"
       width="261.20461"
       height="31.809232"
       id="rect2" /><rect
       x="97.628716"
       y="100.36549"
       width="382.56"
       height="24.439906"
       id="rect2-6" /></defs><g
     inkscape:label="Layer 1"
     inkscape:groupmode="layer"
     id="layer1"><rect
       style="fill:#000000;stroke-width:0.531158"
       id="rect1"
       width="169.33333"
       height="95.25"
       x="2.5431316e-06"
       y="0" /><text
       xml:space="preserve"
       transform="matrix(0.26458333,0,0,0.26458333,47.512624,26.554545)"
       id="text1"
       style="font-size:17.3333px;font-family:'Noto Sans';-inkscape-font-specification:'Noto Sans';white-space:pre;shape-inside:url(#rect2);fill:#000000"><tspan
         x="97.628906"
         y="117.7852"
         id="tspan2"><tspan
           style="fill:#ffffff"
           id="tspan1">카메라 없음 </tspan></tspan></text><text
       xml:space="preserve"
       transform="matrix(0.26458333,0,0,0.26458333,14.754542,34.084357)"
       id="text1-8"
       style="font-size:13.3333px;font-family:'Noto Sans';-inkscape-font-specification:'Noto Sans';white-space:pre;shape-inside:url(#rect2-6);display:inline;fill:#808080;fill-opacity:1;fill-rule:nonzero"><tspan
         x="97.628906"
         y="113.7652"
         id="tspan3">카메라가 아직 연결되지 않았거나 이용할 수 없는 상태입니다</tspan></text><g
       id="g2"
       transform="matrix(0.12192687,0,0,0.12192687,-99.391068,15.371236)" /><g
       style="fill:#ffffff;fill-opacity:1"
       id="g4"
       transform="matrix(1.033168,0,0,1.033168,75.871103,32.132987)"><path
         fill-rule="evenodd"
         d="m 10.961,12.365 a 2,2 0 0 0 0.522,-1.103 l 3.11,1.382 A 1,1 0 0 0 16,11.731 V 4.269 A 1,1 0 0 0 14.594,3.356 L 11.483,4.738 A 2,2 0 0 0 9.5,3 H 4.272 Z m -10.114,-9 A 2,2 0 0 0 0,5 v 6 a 2,2 0 0 0 2,2 h 5.728 z m 9.746,11.925 -10,-14 0.814,-0.58 10,14 z"
         id="path1-2"
         style="fill:#ffffff;fill-opacity:1" /></g><circle
       style="fill:#000000;fill-opacity:1;stroke-width:0.251702"
       id="path5"
       cx="94.739555"
       cy="35.324715"
       r="4.9578867" /><g
       style="fill:#808080;fill-opacity:1"
       id="g5"
       transform="matrix(0.4807278,0,0,0.4807278,90.893746,31.478887)"><path
         d="M 16,8 A 8,8 0 1 1 0,8 8,8 0 0 1 16,8 M 8,4 A 0.905,0.905 0 0 0 7.1,4.995 l 0.35,3.507 a 0.552,0.552 0 0 0 1.1,0 L 8.9,4.995 A 0.905,0.905 0 0 0 8,4 m 0.002,6 a 1,1 0 1 0 0,2 1,1 0 0 0 0,-2"
         id="path1"
         style="fill:#808080;fill-opacity:1" /></g></g></svg>
